<mxfile host="app.diagrams.net" modified="2024-03-11T23:00:45.288Z" agent="Mozilla/5.0 (Windows NT 10.0; Win64; x64) AppleWebKit/537.36 (KHTML, like Gecko) Chrome/93.0.4577.82 Safari/537.36" etag="0cCbv_dzL3G5U8CdtYQd" version="24.0.2" type="github">
  <diagram name="PÃ¡gina-1" id="nPnS-npcXqcOk9-AM_7p">
    <mxGraphModel dx="2062" dy="1747" grid="1" gridSize="10" guides="1" tooltips="1" connect="1" arrows="1" fold="1" page="1" pageScale="1" pageWidth="827" pageHeight="1169" math="0" shadow="0">
      <root>
        <mxCell id="0" />
        <mxCell id="1" parent="0" />
        <mxCell id="hk-cd0pmr9pBPQPgSmE_-25" value="&lt;pre style=&quot;font-size: 10px;&quot; class=&quot;code highlight&quot; lang=&quot;java&quot;&gt;&lt;span style=&quot;font-size: 10px;&quot; id=&quot;LC620&quot; class=&quot;line&quot; lang=&quot;java&quot;&gt;&lt;span style=&quot;font-size: 10px;&quot; class=&quot;cm&quot;&gt;http://api.sunat.peru/v1/auditoria/tributaria/fiscalizacion/e/actualizaMonto&lt;/span&gt;&lt;/span&gt;&lt;br style=&quot;font-size: 10px;&quot;&gt;&lt;span style=&quot;font-size: 10px;&quot; id=&quot;LC623&quot; class=&quot;line&quot; lang=&quot;java&quot;&gt;&lt;span style=&quot;font-size: 10px;&quot; class=&quot;cm&quot;&gt;{&lt;/span&gt;&lt;/span&gt;&lt;br style=&quot;font-size: 10px;&quot;&gt;&lt;span style=&quot;font-size: 10px;&quot; id=&quot;LC624&quot; class=&quot;line&quot; lang=&quot;java&quot;&gt;&lt;span style=&quot;font-size: 10px;&quot; class=&quot;cm&quot;&gt; &quot;codSistema&quot;:&quot;4&quot;,&lt;/span&gt;&lt;/span&gt;&lt;br style=&quot;font-size: 10px;&quot;&gt;&lt;span style=&quot;font-size: 10px;&quot; id=&quot;LC625&quot; class=&quot;line&quot; lang=&quot;java&quot;&gt;&lt;span style=&quot;font-size: 10px;&quot; class=&quot;cm&quot;&gt; &quot;numCarga&quot;: 73864001,&lt;/span&gt;&lt;/span&gt;&lt;br style=&quot;font-size: 10px;&quot;&gt;&lt;span style=&quot;font-size: 10px;&quot; id=&quot;LC626&quot; class=&quot;line&quot; lang=&quot;java&quot;&gt;&lt;span style=&quot;font-size: 10px;&quot; class=&quot;cm&quot;&gt; &quot;numDetalleCarga&quot;: 1026406, ...&lt;/span&gt;&lt;/span&gt;&lt;/pre&gt;&lt;pre style=&quot;font-size: 10px;&quot; class=&quot;code highlight&quot; lang=&quot;java&quot;&gt;}&lt;/pre&gt;&lt;pre style=&quot;font-size: 10px;&quot; class=&quot;code highlight&quot; lang=&quot;java&quot;&gt;&lt;br style=&quot;font-size: 10px;&quot;&gt;&lt;/pre&gt;" style="text;whiteSpace=wrap;html=1;fontSize=10;" parent="1" vertex="1">
          <mxGeometry x="555" y="-222.5" width="515" height="105" as="geometry" />
        </mxCell>
        <mxCell id="hk-cd0pmr9pBPQPgSmE_-14" value="" style="rounded=0;whiteSpace=wrap;html=1;dashed=1;fillColor=none;strokeWidth=2;" parent="1" vertex="1">
          <mxGeometry x="1510" y="-222.5" width="250" height="242.5" as="geometry" />
        </mxCell>
        <mxCell id="e_DzQCpD5upc4EDRTpxR-12" value="" style="rounded=0;whiteSpace=wrap;html=1;dashed=1;fillColor=none;strokeWidth=2;" parent="1" vertex="1">
          <mxGeometry x="1010" y="315" width="540" height="440" as="geometry" />
        </mxCell>
        <mxCell id="geifvfFEWeNei55oTGaf-37" value="" style="rounded=0;whiteSpace=wrap;html=1;dashed=1;fillColor=none;strokeWidth=2;" parent="1" vertex="1">
          <mxGeometry x="305" y="-110" width="470" height="380" as="geometry" />
        </mxCell>
        <mxCell id="e_DzQCpD5upc4EDRTpxR-5" value="" style="group" parent="1" vertex="1" connectable="0">
          <mxGeometry x="-10" y="390" width="480" height="300" as="geometry" />
        </mxCell>
        <mxCell id="geifvfFEWeNei55oTGaf-8" value="" style="rounded=0;whiteSpace=wrap;html=1;dashed=1;fillColor=none;strokeWidth=2;" parent="e_DzQCpD5upc4EDRTpxR-5" vertex="1">
          <mxGeometry width="480" height="300" as="geometry" />
        </mxCell>
        <mxCell id="geifvfFEWeNei55oTGaf-9" value="&lt;b&gt;SIGER&lt;/b&gt;" style="text;strokeColor=none;align=center;fillColor=none;html=1;verticalAlign=middle;whiteSpace=wrap;rounded=0;" parent="e_DzQCpD5upc4EDRTpxR-5" vertex="1">
          <mxGeometry y="270" width="60" height="30" as="geometry" />
        </mxCell>
        <mxCell id="geifvfFEWeNei55oTGaf-1" value="Teradata" style="shape=cylinder3;whiteSpace=wrap;html=1;boundedLbl=1;backgroundOutline=1;size=15;verticalAlign=top;" parent="1" vertex="1">
          <mxGeometry x="10" y="-75" width="150" height="270" as="geometry" />
        </mxCell>
        <mxCell id="geifvfFEWeNei55oTGaf-2" value="Variables SISCOR" style="text;strokeColor=#d6b656;align=center;fillColor=#fff2cc;html=1;verticalAlign=middle;whiteSpace=wrap;rounded=0;" parent="1" vertex="1">
          <mxGeometry x="60" y="-15" width="60" height="30" as="geometry" />
        </mxCell>
        <mxCell id="geifvfFEWeNei55oTGaf-3" value="Variables MUIV" style="text;strokeColor=#d6b656;align=center;fillColor=#fff2cc;html=1;verticalAlign=middle;whiteSpace=wrap;rounded=0;" parent="1" vertex="1">
          <mxGeometry x="60" y="25" width="60" height="30" as="geometry" />
        </mxCell>
        <mxCell id="geifvfFEWeNei55oTGaf-4" value="Score de Cumplimiento Tributario" style="text;strokeColor=#d6b656;align=center;fillColor=#fff2cc;html=1;verticalAlign=middle;whiteSpace=wrap;rounded=0;" parent="1" vertex="1">
          <mxGeometry x="40" y="65" width="80" height="50" as="geometry" />
        </mxCell>
        <mxCell id="geifvfFEWeNei55oTGaf-11" style="edgeStyle=orthogonalEdgeStyle;rounded=0;orthogonalLoop=1;jettySize=auto;html=1;" parent="1" source="geifvfFEWeNei55oTGaf-26" target="geifvfFEWeNei55oTGaf-6" edge="1">
          <mxGeometry relative="1" as="geometry">
            <Array as="points">
              <mxPoint x="267" y="590" />
              <mxPoint x="315" y="590" />
            </Array>
          </mxGeometry>
        </mxCell>
        <mxCell id="geifvfFEWeNei55oTGaf-27" style="edgeStyle=orthogonalEdgeStyle;rounded=0;orthogonalLoop=1;jettySize=auto;html=1;" parent="1" source="geifvfFEWeNei55oTGaf-5" target="geifvfFEWeNei55oTGaf-1" edge="1">
          <mxGeometry relative="1" as="geometry">
            <Array as="points">
              <mxPoint x="270" y="300" />
              <mxPoint x="85" y="300" />
            </Array>
          </mxGeometry>
        </mxCell>
        <mxCell id="geifvfFEWeNei55oTGaf-5" value="Datastage&lt;br&gt;" style="shape=cube;whiteSpace=wrap;html=1;boundedLbl=1;backgroundOutline=1;darkOpacity=0.05;darkOpacity2=0.1;size=10;fillColor=#d5e8d4;strokeColor=#82b366;verticalAlign=top;" parent="1" vertex="1">
          <mxGeometry x="130" y="480" width="165" height="80" as="geometry" />
        </mxCell>
        <mxCell id="geifvfFEWeNei55oTGaf-6" value="Ecosistema&lt;br&gt;Big data" style="shape=cube;whiteSpace=wrap;html=1;boundedLbl=1;backgroundOutline=1;darkOpacity=0.05;darkOpacity2=0.1;size=10;fillColor=#d5e8d4;strokeColor=#82b366;" parent="1" vertex="1">
          <mxGeometry x="270" y="620" width="90" height="50" as="geometry" />
        </mxCell>
        <mxCell id="geifvfFEWeNei55oTGaf-13" value="SFTP" style="shape=cube;whiteSpace=wrap;html=1;boundedLbl=1;backgroundOutline=1;darkOpacity=0.05;darkOpacity2=0.1;size=10;fillColor=#d5e8d4;strokeColor=#82b366;verticalAlign=top;" parent="1" vertex="1">
          <mxGeometry x="10" y="480" width="90" height="70" as="geometry" />
        </mxCell>
        <mxCell id="geifvfFEWeNei55oTGaf-14" style="edgeStyle=orthogonalEdgeStyle;rounded=0;orthogonalLoop=1;jettySize=auto;html=1;" parent="1" source="geifvfFEWeNei55oTGaf-17" target="geifvfFEWeNei55oTGaf-19" edge="1">
          <mxGeometry relative="1" as="geometry">
            <Array as="points">
              <mxPoint x="80" y="560" />
              <mxPoint x="60" y="560" />
            </Array>
          </mxGeometry>
        </mxCell>
        <mxCell id="geifvfFEWeNei55oTGaf-24" style="edgeStyle=orthogonalEdgeStyle;rounded=0;orthogonalLoop=1;jettySize=auto;html=1;" parent="1" source="geifvfFEWeNei55oTGaf-15" target="geifvfFEWeNei55oTGaf-23" edge="1">
          <mxGeometry relative="1" as="geometry" />
        </mxCell>
        <mxCell id="geifvfFEWeNei55oTGaf-15" value="Weblogic" style="shape=cube;whiteSpace=wrap;html=1;boundedLbl=1;backgroundOutline=1;darkOpacity=0.05;darkOpacity2=0.1;size=10;fillColor=#d5e8d4;strokeColor=#82b366;" parent="1" vertex="1">
          <mxGeometry x="145" y="410" width="90" height="50" as="geometry" />
        </mxCell>
        <mxCell id="geifvfFEWeNei55oTGaf-16" value="Weblogic 12.1.3 (Modelo 3)&lt;br style=&quot;font-size: 9px;&quot;&gt;Dominio: Negocio Tributario&lt;br style=&quot;font-size: 9px;&quot;&gt;Cluster-AudiTributariaFront" style="text;strokeColor=none;align=center;fillColor=none;html=1;verticalAlign=middle;whiteSpace=wrap;rounded=0;fontSize=9;" parent="1" vertex="1">
          <mxGeometry x="-10" y="400" width="180" height="30" as="geometry" />
        </mxCell>
        <mxCell id="geifvfFEWeNei55oTGaf-17" value="Control-M" style="shape=cube;whiteSpace=wrap;html=1;boundedLbl=1;backgroundOutline=1;darkOpacity=0.05;darkOpacity2=0.1;size=10;fillColor=#d5e8d4;strokeColor=#82b366;" parent="1" vertex="1">
          <mxGeometry x="60" y="590" width="90" height="50" as="geometry" />
        </mxCell>
        <mxCell id="geifvfFEWeNei55oTGaf-18" style="edgeStyle=orthogonalEdgeStyle;rounded=0;orthogonalLoop=1;jettySize=auto;html=1;" parent="1" source="geifvfFEWeNei55oTGaf-17" target="geifvfFEWeNei55oTGaf-20" edge="1">
          <mxGeometry relative="1" as="geometry" />
        </mxCell>
        <mxCell id="geifvfFEWeNei55oTGaf-19" value="" style="sketch=0;pointerEvents=1;shadow=0;dashed=0;html=1;strokeColor=none;labelPosition=center;verticalLabelPosition=bottom;verticalAlign=top;outlineConnect=0;align=center;shape=mxgraph.office.concepts.folder;fillColor=#7FBA42;" parent="1" vertex="1">
          <mxGeometry x="40" y="513" width="30" height="30" as="geometry" />
        </mxCell>
        <mxCell id="geifvfFEWeNei55oTGaf-20" value="" style="sketch=0;pointerEvents=1;shadow=0;dashed=0;html=1;strokeColor=none;labelPosition=center;verticalLabelPosition=bottom;verticalAlign=top;outlineConnect=0;align=center;shape=mxgraph.office.concepts.folder;fillColor=#7FBA42;" parent="1" vertex="1">
          <mxGeometry x="150" y="513" width="30" height="32" as="geometry" />
        </mxCell>
        <mxCell id="geifvfFEWeNei55oTGaf-21" value="OF-Ordenes de FiscalizaciÃ³n" style="text;strokeColor=#d6b656;align=center;fillColor=#fff2cc;html=1;verticalAlign=middle;whiteSpace=wrap;rounded=0;" parent="1" vertex="1">
          <mxGeometry x="40" y="125" width="80" height="50" as="geometry" />
        </mxCell>
        <mxCell id="geifvfFEWeNei55oTGaf-23" value="Informix&lt;br&gt;bd Riesgo&lt;br&gt;&lt;br&gt;infp15s1&lt;br&gt;online p0i_dwho" style="shape=cylinder3;whiteSpace=wrap;html=1;boundedLbl=1;backgroundOutline=1;size=15;" parent="1" vertex="1">
          <mxGeometry x="360" y="465" width="90" height="125" as="geometry" />
        </mxCell>
        <mxCell id="geifvfFEWeNei55oTGaf-25" value="150.50.2.215" style="text;strokeColor=none;align=center;fillColor=none;html=1;verticalAlign=middle;whiteSpace=wrap;rounded=0;fontSize=9;" parent="1" vertex="1">
          <mxGeometry x="10" y="460" width="60" height="30" as="geometry" />
        </mxCell>
        <mxCell id="geifvfFEWeNei55oTGaf-26" value="" style="sketch=0;outlineConnect=0;fontColor=#232F3E;gradientColor=none;fillColor=#232F3D;strokeColor=none;dashed=0;verticalLabelPosition=bottom;verticalAlign=top;align=center;html=1;fontSize=12;fontStyle=0;aspect=fixed;pointerEvents=1;shape=mxgraph.aws4.gear;" parent="1" vertex="1">
          <mxGeometry x="250" y="513" width="33" height="33" as="geometry" />
        </mxCell>
        <mxCell id="geifvfFEWeNei55oTGaf-30" style="edgeStyle=orthogonalEdgeStyle;rounded=0;orthogonalLoop=1;jettySize=auto;html=1;exitX=0.96;exitY=0.65;exitDx=0;exitDy=0;exitPerimeter=0;" parent="1" source="geifvfFEWeNei55oTGaf-28" target="geifvfFEWeNei55oTGaf-15" edge="1">
          <mxGeometry relative="1" as="geometry" />
        </mxCell>
        <mxCell id="geifvfFEWeNei55oTGaf-31" style="edgeStyle=orthogonalEdgeStyle;rounded=0;orthogonalLoop=1;jettySize=auto;html=1;exitX=0.74;exitY=0.649;exitDx=0;exitDy=0;exitPerimeter=0;" parent="1" source="geifvfFEWeNei55oTGaf-28" target="geifvfFEWeNei55oTGaf-19" edge="1">
          <mxGeometry relative="1" as="geometry">
            <Array as="points">
              <mxPoint x="-120" y="364" />
              <mxPoint x="-120" y="528" />
            </Array>
          </mxGeometry>
        </mxCell>
        <mxCell id="geifvfFEWeNei55oTGaf-29" value="INER" style="text;strokeColor=none;align=center;fillColor=none;html=1;verticalAlign=middle;whiteSpace=wrap;rounded=0;" parent="1" vertex="1">
          <mxGeometry x="-140" y="377" width="60" height="30" as="geometry" />
        </mxCell>
        <mxCell id="geifvfFEWeNei55oTGaf-32" value="1 Registra reglas" style="text;strokeColor=none;align=center;fillColor=none;html=1;verticalAlign=middle;whiteSpace=wrap;rounded=0;fontSize=10;" parent="1" vertex="1">
          <mxGeometry x="-90" y="330" width="100" height="30" as="geometry" />
        </mxCell>
        <mxCell id="geifvfFEWeNei55oTGaf-33" value="2 Sube archivos&lt;br style=&quot;font-size: 10px;&quot;&gt;matriz especifica /global/tratamientos&lt;br style=&quot;font-size: 10px;&quot;&gt;/asignaciÃ³n/capacidad operativa, otros" style="text;strokeColor=none;align=left;fillColor=none;html=1;verticalAlign=middle;whiteSpace=wrap;rounded=0;fontSize=10;" parent="1" vertex="1">
          <mxGeometry x="-180" y="412.5" width="100" height="60" as="geometry" />
        </mxCell>
        <mxCell id="geifvfFEWeNei55oTGaf-34" value="3 Solicita ejecutar matriz de resultados" style="text;strokeColor=none;align=center;fillColor=none;html=1;verticalAlign=middle;whiteSpace=wrap;rounded=0;fontSize=10;" parent="1" vertex="1">
          <mxGeometry x="-90" y="360" width="100" height="30" as="geometry" />
        </mxCell>
        <mxCell id="geifvfFEWeNei55oTGaf-36" style="edgeStyle=orthogonalEdgeStyle;rounded=0;orthogonalLoop=1;jettySize=auto;html=1;entryX=0.022;entryY=0.432;entryDx=0;entryDy=0;entryPerimeter=0;" parent="1" source="geifvfFEWeNei55oTGaf-5" target="geifvfFEWeNei55oTGaf-23" edge="1">
          <mxGeometry relative="1" as="geometry" />
        </mxCell>
        <mxCell id="e_DzQCpD5upc4EDRTpxR-9" style="edgeStyle=orthogonalEdgeStyle;rounded=0;orthogonalLoop=1;jettySize=auto;html=1;" parent="1" source="e_DzQCpD5upc4EDRTpxR-1" target="e_DzQCpD5upc4EDRTpxR-4" edge="1">
          <mxGeometry relative="1" as="geometry" />
        </mxCell>
        <mxCell id="e_DzQCpD5upc4EDRTpxR-1" value="Weblogic" style="shape=cube;whiteSpace=wrap;html=1;boundedLbl=1;backgroundOutline=1;darkOpacity=0.05;darkOpacity2=0.1;size=10;fillColor=#d5e8d4;strokeColor=#82b366;" parent="1" vertex="1">
          <mxGeometry x="455" y="-100" width="90" height="50" as="geometry" />
        </mxCell>
        <mxCell id="e_DzQCpD5upc4EDRTpxR-2" value="&lt;b&gt;SISCOR&lt;/b&gt;" style="text;strokeColor=none;align=center;fillColor=none;html=1;verticalAlign=middle;whiteSpace=wrap;rounded=0;" parent="1" vertex="1">
          <mxGeometry x="295" y="-140" width="60" height="30" as="geometry" />
        </mxCell>
        <mxCell id="e_DzQCpD5upc4EDRTpxR-3" value="Weblogic 12.1.3 (Modelo 3)&lt;br style=&quot;font-size: 9px;&quot;&gt;Dominio: Negocio Tributario&lt;br style=&quot;font-size: 9px;&quot;&gt;Cluster-AudiTributariaFront&lt;br&gt;Cluster-AudiTributariaBatch&lt;br&gt;Cluster-AudiTributariaBackend" style="text;strokeColor=none;align=center;fillColor=none;html=1;verticalAlign=middle;whiteSpace=wrap;rounded=0;fontSize=9;" parent="1" vertex="1">
          <mxGeometry x="315" y="-105" width="130" height="60" as="geometry" />
        </mxCell>
        <mxCell id="e_DzQCpD5upc4EDRTpxR-4" value="Informix&lt;br&gt;bd Riesgo&lt;br&gt;&lt;br&gt;infp15s1&lt;br&gt;online p0i_dwho" style="shape=cylinder3;whiteSpace=wrap;html=1;boundedLbl=1;backgroundOutline=1;size=15;" parent="1" vertex="1">
          <mxGeometry x="660" y="-27.5" width="90" height="125" as="geometry" />
        </mxCell>
        <mxCell id="e_DzQCpD5upc4EDRTpxR-10" style="edgeStyle=orthogonalEdgeStyle;rounded=0;orthogonalLoop=1;jettySize=auto;html=1;" parent="1" source="e_DzQCpD5upc4EDRTpxR-6" target="e_DzQCpD5upc4EDRTpxR-8" edge="1">
          <mxGeometry relative="1" as="geometry" />
        </mxCell>
        <mxCell id="e_DzQCpD5upc4EDRTpxR-11" style="edgeStyle=orthogonalEdgeStyle;rounded=0;orthogonalLoop=1;jettySize=auto;html=1;" parent="1" source="e_DzQCpD5upc4EDRTpxR-6" target="e_DzQCpD5upc4EDRTpxR-4" edge="1">
          <mxGeometry relative="1" as="geometry" />
        </mxCell>
        <mxCell id="e_DzQCpD5upc4EDRTpxR-6" value="Datastage&lt;br&gt;" style="shape=cube;whiteSpace=wrap;html=1;boundedLbl=1;backgroundOutline=1;darkOpacity=0.05;darkOpacity2=0.1;size=10;fillColor=#d5e8d4;strokeColor=#82b366;verticalAlign=top;" parent="1" vertex="1">
          <mxGeometry x="390" width="165" height="80" as="geometry" />
        </mxCell>
        <mxCell id="e_DzQCpD5upc4EDRTpxR-7" value="" style="sketch=0;outlineConnect=0;fontColor=#232F3E;gradientColor=none;fillColor=#232F3D;strokeColor=none;dashed=0;verticalLabelPosition=bottom;verticalAlign=top;align=center;html=1;fontSize=12;fontStyle=0;aspect=fixed;pointerEvents=1;shape=mxgraph.aws4.gear;" parent="1" vertex="1">
          <mxGeometry x="510" y="33" width="33" height="33" as="geometry" />
        </mxCell>
        <mxCell id="e_DzQCpD5upc4EDRTpxR-8" value="Teradata&lt;br&gt;&lt;br&gt;BDDWETB&lt;br&gt;BDDWESTG" style="shape=cylinder3;whiteSpace=wrap;html=1;boundedLbl=1;backgroundOutline=1;size=15;verticalAlign=top;" parent="1" vertex="1">
          <mxGeometry x="450" y="120" width="90" height="130" as="geometry" />
        </mxCell>
        <mxCell id="geifvfFEWeNei55oTGaf-28" value="" style="sketch=0;pointerEvents=1;shadow=0;dashed=0;html=1;strokeColor=none;labelPosition=center;verticalLabelPosition=bottom;verticalAlign=top;align=center;fillColor=#505050;shape=mxgraph.mscae.intune.user_group" parent="1" vertex="1">
          <mxGeometry x="-140" y="340" width="50" height="37" as="geometry" />
        </mxCell>
        <mxCell id="e_DzQCpD5upc4EDRTpxR-13" value="&lt;b&gt;COF&lt;/b&gt;" style="text;strokeColor=none;align=center;fillColor=none;html=1;verticalAlign=middle;whiteSpace=wrap;rounded=0;" parent="1" vertex="1">
          <mxGeometry x="1000" y="285" width="60" height="30" as="geometry" />
        </mxCell>
        <mxCell id="e_DzQCpD5upc4EDRTpxR-14" value="Informix&lt;br&gt;bd RFisca&lt;br&gt;&lt;br&gt;sxx_bancos" style="shape=cylinder3;whiteSpace=wrap;html=1;boundedLbl=1;backgroundOutline=1;size=15;" parent="1" vertex="1">
          <mxGeometry x="1350" y="335" width="90" height="125" as="geometry" />
        </mxCell>
        <mxCell id="e_DzQCpD5upc4EDRTpxR-15" value="Informix&lt;br&gt;bd RFisca&lt;br&gt;&lt;br&gt;sxx_bancos" style="shape=cylinder3;whiteSpace=wrap;html=1;boundedLbl=1;backgroundOutline=1;size=15;" parent="1" vertex="1">
          <mxGeometry x="1340" y="347.5" width="90" height="125" as="geometry" />
        </mxCell>
        <mxCell id="e_DzQCpD5upc4EDRTpxR-16" value="Informix&lt;br&gt;bd RFisca&lt;br&gt;&lt;br&gt;online sxx_bancos" style="shape=cylinder3;whiteSpace=wrap;html=1;boundedLbl=1;backgroundOutline=1;size=15;" parent="1" vertex="1">
          <mxGeometry x="1330" y="360" width="90" height="125" as="geometry" />
        </mxCell>
        <mxCell id="e_DzQCpD5upc4EDRTpxR-17" value="Informix&lt;br&gt;bd RFisca&lt;br&gt;&lt;br&gt;sxx_bancos" style="shape=cylinder3;whiteSpace=wrap;html=1;boundedLbl=1;backgroundOutline=1;size=15;" parent="1" vertex="1">
          <mxGeometry x="1350" y="515" width="90" height="125" as="geometry" />
        </mxCell>
        <mxCell id="e_DzQCpD5upc4EDRTpxR-18" value="Informix&lt;br&gt;bd RFisca&lt;br&gt;&lt;br&gt;sxx_bancos" style="shape=cylinder3;whiteSpace=wrap;html=1;boundedLbl=1;backgroundOutline=1;size=15;" parent="1" vertex="1">
          <mxGeometry x="1340" y="527.5" width="90" height="125" as="geometry" />
        </mxCell>
        <mxCell id="e_DzQCpD5upc4EDRTpxR-19" value="Informix&lt;br&gt;bd RFisca&lt;br&gt;&lt;br&gt;online sxx_mepeco" style="shape=cylinder3;whiteSpace=wrap;html=1;boundedLbl=1;backgroundOutline=1;size=15;" parent="1" vertex="1">
          <mxGeometry x="1330" y="540" width="90" height="125" as="geometry" />
        </mxCell>
        <mxCell id="e_DzQCpD5upc4EDRTpxR-28" style="edgeStyle=orthogonalEdgeStyle;rounded=0;orthogonalLoop=1;jettySize=auto;html=1;" parent="1" source="e_DzQCpD5upc4EDRTpxR-20" target="e_DzQCpD5upc4EDRTpxR-16" edge="1">
          <mxGeometry relative="1" as="geometry">
            <Array as="points">
              <mxPoint x="1270" y="387" />
              <mxPoint x="1270" y="423" />
            </Array>
          </mxGeometry>
        </mxCell>
        <mxCell id="e_DzQCpD5upc4EDRTpxR-29" style="edgeStyle=orthogonalEdgeStyle;rounded=0;orthogonalLoop=1;jettySize=auto;html=1;" parent="1" source="e_DzQCpD5upc4EDRTpxR-20" target="e_DzQCpD5upc4EDRTpxR-22" edge="1">
          <mxGeometry relative="1" as="geometry">
            <Array as="points">
              <mxPoint x="1120" y="479" />
              <mxPoint x="1075" y="479" />
            </Array>
          </mxGeometry>
        </mxCell>
        <mxCell id="e_DzQCpD5upc4EDRTpxR-30" style="edgeStyle=orthogonalEdgeStyle;rounded=0;orthogonalLoop=1;jettySize=auto;html=1;" parent="1" source="e_DzQCpD5upc4EDRTpxR-20" target="e_DzQCpD5upc4EDRTpxR-21" edge="1">
          <mxGeometry relative="1" as="geometry">
            <Array as="points">
              <mxPoint x="1120" y="479" />
              <mxPoint x="1195" y="479" />
            </Array>
          </mxGeometry>
        </mxCell>
        <mxCell id="e_DzQCpD5upc4EDRTpxR-20" value="SIRAT(EXE)" style="shape=cube;whiteSpace=wrap;html=1;boundedLbl=1;backgroundOutline=1;darkOpacity=0.05;darkOpacity2=0.1;size=10;fillColor=#d5e8d4;strokeColor=#82b366;" parent="1" vertex="1">
          <mxGeometry x="1060" y="362" width="90" height="50" as="geometry" />
        </mxCell>
        <mxCell id="e_DzQCpD5upc4EDRTpxR-21" value="Informix&lt;br&gt;bd Riesgo&lt;br&gt;&lt;br&gt;online ondwho" style="shape=cylinder3;whiteSpace=wrap;html=1;boundedLbl=1;backgroundOutline=1;size=15;" parent="1" vertex="1">
          <mxGeometry x="1150" y="545" width="90" height="125" as="geometry" />
        </mxCell>
        <mxCell id="e_DzQCpD5upc4EDRTpxR-22" value="Informix&lt;br&gt;Metodos&lt;br&gt;&lt;br&gt;online s0i_dwh" style="shape=cylinder3;whiteSpace=wrap;html=1;boundedLbl=1;backgroundOutline=1;size=15;" parent="1" vertex="1">
          <mxGeometry x="1030" y="545" width="90" height="125" as="geometry" />
        </mxCell>
        <mxCell id="e_DzQCpD5upc4EDRTpxR-23" value="&lt;u&gt;&lt;b&gt;Tablas&lt;/b&gt;&lt;/u&gt;&lt;br&gt;t8101regfis&lt;br&gt;T6279varprogdesc&lt;br&gt;fis_cof&lt;br&gt;cargas" style="text;strokeColor=none;align=left;fillColor=none;html=1;verticalAlign=middle;whiteSpace=wrap;rounded=0;" parent="1" vertex="1">
          <mxGeometry x="1450" y="395" width="60" height="30" as="geometry" />
        </mxCell>
        <mxCell id="e_DzQCpD5upc4EDRTpxR-25" value="&lt;u&gt;&lt;b&gt;Tablas&lt;/b&gt;&lt;/u&gt;&lt;br&gt;T7741Regla&lt;br&gt;T7944Carga&lt;br&gt;T7945DetalleCarga" style="text;strokeColor=none;align=left;fillColor=none;html=1;verticalAlign=middle;whiteSpace=wrap;rounded=0;" parent="1" vertex="1">
          <mxGeometry x="1165" y="685" width="60" height="30" as="geometry" />
        </mxCell>
        <mxCell id="e_DzQCpD5upc4EDRTpxR-26" value="&lt;u&gt;&lt;b&gt;Tablas&lt;/b&gt;&lt;/u&gt;&lt;br&gt;t8101regfis&lt;br&gt;T6279varprogdesc&lt;br&gt;fis_cof&lt;br&gt;cargas" style="text;strokeColor=none;align=left;fillColor=none;html=1;verticalAlign=middle;whiteSpace=wrap;rounded=0;" parent="1" vertex="1">
          <mxGeometry x="1450" y="562.5" width="60" height="30" as="geometry" />
        </mxCell>
        <mxCell id="e_DzQCpD5upc4EDRTpxR-27" value="&lt;u&gt;&lt;b&gt;Tablas&lt;/b&gt;&lt;/u&gt;&lt;br&gt;T7741Regla&lt;br&gt;T7944Carga&lt;br&gt;T7945DetalleCarga" style="text;strokeColor=none;align=left;fillColor=none;html=1;verticalAlign=middle;whiteSpace=wrap;rounded=0;" parent="1" vertex="1">
          <mxGeometry x="1045" y="685" width="60" height="30" as="geometry" />
        </mxCell>
        <mxCell id="e_DzQCpD5upc4EDRTpxR-31" style="edgeStyle=orthogonalEdgeStyle;rounded=0;orthogonalLoop=1;jettySize=auto;html=1;entryX=0;entryY=0;entryDx=0;entryDy=38.75;entryPerimeter=0;" parent="1" source="e_DzQCpD5upc4EDRTpxR-20" target="e_DzQCpD5upc4EDRTpxR-19" edge="1">
          <mxGeometry relative="1" as="geometry">
            <Array as="points">
              <mxPoint x="1270" y="387" />
              <mxPoint x="1270" y="579" />
            </Array>
          </mxGeometry>
        </mxCell>
        <mxCell id="e_DzQCpD5upc4EDRTpxR-33" style="edgeStyle=orthogonalEdgeStyle;rounded=0;orthogonalLoop=1;jettySize=auto;html=1;entryX=0;entryY=0.5;entryDx=0;entryDy=0;entryPerimeter=0;" parent="1" source="e_DzQCpD5upc4EDRTpxR-4" target="e_DzQCpD5upc4EDRTpxR-22" edge="1">
          <mxGeometry relative="1" as="geometry">
            <Array as="points">
              <mxPoint x="880" y="35" />
              <mxPoint x="880" y="608" />
            </Array>
          </mxGeometry>
        </mxCell>
        <mxCell id="e_DzQCpD5upc4EDRTpxR-34" value="" style="rounded=0;whiteSpace=wrap;html=1;dashed=1;fillColor=none;strokeWidth=2;" parent="1" vertex="1">
          <mxGeometry x="990" y="-210" width="450" height="440" as="geometry" />
        </mxCell>
        <mxCell id="e_DzQCpD5upc4EDRTpxR-35" value="&lt;b&gt;FPE&lt;/b&gt;" style="text;strokeColor=none;align=center;fillColor=none;html=1;verticalAlign=middle;whiteSpace=wrap;rounded=0;" parent="1" vertex="1">
          <mxGeometry x="1000" y="-240" width="60" height="30" as="geometry" />
        </mxCell>
        <mxCell id="hk-cd0pmr9pBPQPgSmE_-8" style="edgeStyle=orthogonalEdgeStyle;rounded=0;orthogonalLoop=1;jettySize=auto;html=1;fontSize=12;startSize=8;endSize=8;entryX=0;entryY=0.5;entryDx=0;entryDy=0;entryPerimeter=0;" parent="1" source="hk-cd0pmr9pBPQPgSmE_-1" target="hk-cd0pmr9pBPQPgSmE_-7" edge="1">
          <mxGeometry relative="1" as="geometry">
            <Array as="points">
              <mxPoint x="1290" y="-155" />
              <mxPoint x="1290" y="-30" />
              <mxPoint x="1323" y="-30" />
              <mxPoint x="1323" y="-37" />
            </Array>
          </mxGeometry>
        </mxCell>
        <mxCell id="hk-cd0pmr9pBPQPgSmE_-13" style="edgeStyle=none;curved=1;rounded=0;orthogonalLoop=1;jettySize=auto;html=1;fontSize=12;startSize=8;endSize=8;" parent="1" source="hk-cd0pmr9pBPQPgSmE_-1" target="hk-cd0pmr9pBPQPgSmE_-12" edge="1">
          <mxGeometry relative="1" as="geometry" />
        </mxCell>
        <mxCell id="hk-cd0pmr9pBPQPgSmE_-1" value="Weblogic" style="shape=cube;whiteSpace=wrap;html=1;boundedLbl=1;backgroundOutline=1;darkOpacity=0.05;darkOpacity2=0.1;size=10;fillColor=#d5e8d4;strokeColor=#82b366;" parent="1" vertex="1">
          <mxGeometry x="1165" y="-180" width="90" height="50" as="geometry" />
        </mxCell>
        <mxCell id="hk-cd0pmr9pBPQPgSmE_-20" style="edgeStyle=none;curved=1;rounded=0;orthogonalLoop=1;jettySize=auto;html=1;fontSize=12;startSize=8;endSize=8;" parent="1" source="hk-cd0pmr9pBPQPgSmE_-2" target="hk-cd0pmr9pBPQPgSmE_-18" edge="1">
          <mxGeometry relative="1" as="geometry" />
        </mxCell>
        <mxCell id="hk-cd0pmr9pBPQPgSmE_-2" value="Weblogic 12.1.3 (Modelo 3)&lt;br style=&quot;font-size: 9px;&quot;&gt;Dominio: Negocio Tributario5&lt;br style=&quot;font-size: 9px;&quot;&gt;Cluster-AudiTributariaFront2&lt;br&gt;Cluster-AudiTributariaBatch2" style="text;strokeColor=none;align=center;fillColor=none;html=1;verticalAlign=middle;whiteSpace=wrap;rounded=0;fontSize=9;" parent="1" vertex="1">
          <mxGeometry x="1150" y="-130" width="130" height="60" as="geometry" />
        </mxCell>
        <mxCell id="hk-cd0pmr9pBPQPgSmE_-3" value="" style="edgeStyle=orthogonalEdgeStyle;orthogonalLoop=1;jettySize=auto;html=1;rounded=0;fontSize=12;startSize=8;endSize=8;exitX=0;exitY=0;exitDx=0;exitDy=20;exitPerimeter=0;entryX=1.002;entryY=0.218;entryDx=0;entryDy=0;entryPerimeter=0;" parent="1" source="hk-cd0pmr9pBPQPgSmE_-1" target="e_DzQCpD5upc4EDRTpxR-4" edge="1">
          <mxGeometry width="120" relative="1" as="geometry">
            <mxPoint x="1130" y="-10" as="sourcePoint" />
            <mxPoint x="1250" y="-10" as="targetPoint" />
            <Array as="points">
              <mxPoint x="1165" y="-40" />
              <mxPoint x="880" y="-40" />
              <mxPoint x="880" />
            </Array>
          </mxGeometry>
        </mxCell>
        <mxCell id="hk-cd0pmr9pBPQPgSmE_-7" value="Informix&lt;br&gt;bdfpe&lt;br&gt;&lt;br&gt;infp07s1&lt;br&gt;online notifica" style="shape=cylinder3;whiteSpace=wrap;html=1;boundedLbl=1;backgroundOutline=1;size=15;" parent="1" vertex="1">
          <mxGeometry x="1320" y="-100" width="90" height="125" as="geometry" />
        </mxCell>
        <mxCell id="hk-cd0pmr9pBPQPgSmE_-9" value="&lt;u&gt;&lt;b&gt;Tablas&lt;/b&gt;&lt;/u&gt;&lt;br&gt;&lt;div&gt;&lt;div&gt;T7945DetalleCarga&lt;/div&gt;&lt;div&gt;T7944Carga&lt;/div&gt;&lt;div&gt;T8205ReglaContrib&lt;/div&gt;&lt;div&gt;T7741Regla&lt;/div&gt;&lt;div&gt;T8211CarxEleAsp&lt;/div&gt;&lt;div&gt;T8197MatrizSel&lt;/div&gt;&lt;div&gt;T8198DetInforme&lt;/div&gt;&lt;/div&gt;" style="text;strokeColor=none;align=left;fillColor=none;html=1;verticalAlign=middle;whiteSpace=wrap;rounded=0;" parent="1" vertex="1">
          <mxGeometry x="660" y="90" width="165" height="140" as="geometry" />
        </mxCell>
        <mxCell id="hk-cd0pmr9pBPQPgSmE_-11" value="&lt;u&gt;&lt;b&gt;Tablas&lt;/b&gt;&lt;/u&gt;&lt;br&gt;&lt;div&gt;t6302CabPedido&lt;/div&gt;&lt;div&gt;T6303DetPedido&lt;/div&gt;" style="text;strokeColor=none;align=left;fillColor=none;html=1;verticalAlign=middle;whiteSpace=wrap;rounded=0;" parent="1" vertex="1">
          <mxGeometry x="1590" y="-75" width="130" height="85" as="geometry" />
        </mxCell>
        <mxCell id="hk-cd0pmr9pBPQPgSmE_-12" value="SINE" style="shape=cube;whiteSpace=wrap;html=1;boundedLbl=1;backgroundOutline=1;darkOpacity=0.05;darkOpacity2=0.1;size=10;fillColor=#d5e8d4;strokeColor=#82b366;" parent="1" vertex="1">
          <mxGeometry x="1590" y="-180" width="90" height="50" as="geometry" />
        </mxCell>
        <mxCell id="hk-cd0pmr9pBPQPgSmE_-15" value="&lt;b&gt;SINE&lt;/b&gt;" style="text;strokeColor=none;align=center;fillColor=none;html=1;verticalAlign=middle;whiteSpace=wrap;rounded=0;" parent="1" vertex="1">
          <mxGeometry x="1510" y="-252.5" width="60" height="30" as="geometry" />
        </mxCell>
        <mxCell id="hk-cd0pmr9pBPQPgSmE_-16" style="edgeStyle=none;curved=1;rounded=0;orthogonalLoop=1;jettySize=auto;html=1;exitX=0.5;exitY=0;exitDx=0;exitDy=0;fontSize=12;startSize=8;endSize=8;" parent="1" source="hk-cd0pmr9pBPQPgSmE_-15" target="hk-cd0pmr9pBPQPgSmE_-15" edge="1">
          <mxGeometry relative="1" as="geometry" />
        </mxCell>
        <mxCell id="hk-cd0pmr9pBPQPgSmE_-18" value="Oracle&lt;br&gt;bdaqti&lt;br&gt;&lt;div&gt;&lt;br/&gt;&lt;/div&gt;" style="shape=cylinder3;whiteSpace=wrap;html=1;boundedLbl=1;backgroundOutline=1;size=15;" parent="1" vertex="1">
          <mxGeometry x="1170" y="70" width="90" height="125" as="geometry" />
        </mxCell>
        <mxCell id="hk-cd0pmr9pBPQPgSmE_-19" value="SELECT COUNT(1) as cantidad&#xa;Â  Â  Â  Â  Â  Â  Â  FROM t7945detallecarga det,&#xa;Â  Â  Â  Â  Â  Â  Â  t7944carga carga,&#xa;Â  Â  Â  Â  Â  Â Â Â Â Â  t8197matrizsel matriz&#xa;Â  Â  Â  Â  Â  Â  Â  WHERE det.num_carga = carga.num_carga&#xa;Â  Â  Â  Â  Â  Â  Â  AND matriz.num_matriz_sel = carga.num_matriz_sel&#xa;Â  Â  Â  Â  Â  Â  Â  AND matriz.ind_estado = 3&#xa;Â  Â  Â  Â  Â  Â  Â  AND det.ind_estreg = 5&#xa;Â  Â  Â  Â  Â  Â  Â  AND carga.cod_tipfis = 04&#xa;Â  Â  Â  Â  Â  Â  Â  AND carga.cod_sistema = 4&#xa;Â  Â  Â  Â  Â  Â  Â  AND carga.cod_tipact = 01" style="text;whiteSpace=wrap;fontSize=10;" parent="1" vertex="1">
          <mxGeometry x="885" y="-45" width="340" height="170" as="geometry" />
        </mxCell>
        <mxCell id="hk-cd0pmr9pBPQPgSmE_-21" value="" style="shape=flexArrow;endArrow=classic;html=1;rounded=0;fontSize=12;startSize=8;endSize=8;curved=1;fontColor=#FF3333;labelBorderColor=#FF3333;labelBackgroundColor=#FF3333;strokeColor=#FF3333;" parent="1" edge="1">
          <mxGeometry width="50" height="50" relative="1" as="geometry">
            <mxPoint x="165" y="115" as="sourcePoint" />
            <mxPoint x="290" y="115" as="targetPoint" />
            <Array as="points">
              <mxPoint x="205" y="115" />
            </Array>
          </mxGeometry>
        </mxCell>
        <mxCell id="hk-cd0pmr9pBPQPgSmE_-22" value="" style="shape=flexArrow;endArrow=classic;html=1;rounded=0;fontSize=12;startSize=8;endSize=8;curved=1;strokeColor=#FF3333;" parent="1" edge="1">
          <mxGeometry width="50" height="50" relative="1" as="geometry">
            <mxPoint x="967" y="-131" as="sourcePoint" />
            <mxPoint x="827" y="-131" as="targetPoint" />
            <Array as="points" />
          </mxGeometry>
        </mxCell>
        <mxCell id="hk-cd0pmr9pBPQPgSmE_-24" style="edgeStyle=orthogonalEdgeStyle;rounded=0;orthogonalLoop=1;jettySize=auto;html=1;entryX=1.011;entryY=0.34;entryDx=0;entryDy=0;entryPerimeter=0;fontSize=12;startSize=8;endSize=8;" parent="1" source="hk-cd0pmr9pBPQPgSmE_-1" target="e_DzQCpD5upc4EDRTpxR-1" edge="1">
          <mxGeometry relative="1" as="geometry">
            <Array as="points">
              <mxPoint x="790" y="-155" />
              <mxPoint x="790" y="-83" />
            </Array>
          </mxGeometry>
        </mxCell>
        <mxCell id="hk-cd0pmr9pBPQPgSmE_-26" value="&lt;u&gt;&lt;b&gt;Tablas&lt;/b&gt;&lt;/u&gt;&lt;br&gt;&lt;div&gt;&lt;div&gt;t12005reglasel&lt;/div&gt;&lt;div&gt;p7024carga&lt;/div&gt;&lt;div&gt;t12004agrupintend&lt;/div&gt;&lt;div&gt;t7040fiscalizable&lt;/div&gt;&lt;/div&gt;&lt;div&gt;&lt;br&gt;&lt;/div&gt;" style="text;strokeColor=none;align=left;fillColor=none;html=1;verticalAlign=middle;whiteSpace=wrap;rounded=0;" parent="1" vertex="1">
          <mxGeometry x="1320" y="35" width="110" height="90" as="geometry" />
        </mxCell>
        <mxCell id="hk-cd0pmr9pBPQPgSmE_-29" value="" style="shape=flexArrow;endArrow=classic;html=1;rounded=0;fontSize=12;startSize=8;endSize=8;curved=1;fontColor=#FF3333;labelBorderColor=#FF3333;labelBackgroundColor=#FF3333;strokeColor=#FF3333;" parent="1" edge="1">
          <mxGeometry width="50" height="50" relative="1" as="geometry">
            <mxPoint x="827" y="-60" as="sourcePoint" />
            <mxPoint x="970" y="-60" as="targetPoint" />
            <Array as="points">
              <mxPoint x="867" y="-60" />
            </Array>
          </mxGeometry>
        </mxCell>
        <mxCell id="-gU_eVzrO79IEMNU5jLW-1" value="" style="rounded=0;whiteSpace=wrap;html=1;dashed=1;fillColor=none;strokeWidth=2;" parent="1" vertex="1">
          <mxGeometry x="1010" y="820" width="540" height="311" as="geometry" />
        </mxCell>
        <mxCell id="-gU_eVzrO79IEMNU5jLW-2" value="&lt;b&gt;GEMA&lt;/b&gt;" style="text;strokeColor=none;align=center;fillColor=none;html=1;verticalAlign=middle;whiteSpace=wrap;rounded=0;" parent="1" vertex="1">
          <mxGeometry x="1010" y="796" width="60" height="30" as="geometry" />
        </mxCell>
        <mxCell id="-gU_eVzrO79IEMNU5jLW-4" style="edgeStyle=orthogonalEdgeStyle;rounded=0;orthogonalLoop=1;jettySize=auto;html=1;entryX=0.694;entryY=1.003;entryDx=0;entryDy=0;entryPerimeter=0;" parent="1" source="-gU_eVzrO79IEMNU5jLW-3" target="geifvfFEWeNei55oTGaf-37" edge="1">
          <mxGeometry relative="1" as="geometry" />
        </mxCell>
        <mxCell id="-gU_eVzrO79IEMNU5jLW-6" value="Entra a SISCOR para descargar archivo plano" style="edgeLabel;html=1;align=center;verticalAlign=middle;resizable=0;points=[];" parent="-gU_eVzrO79IEMNU5jLW-4" vertex="1" connectable="0">
          <mxGeometry x="-0.0542" relative="1" as="geometry">
            <mxPoint as="offset" />
          </mxGeometry>
        </mxCell>
        <mxCell id="-gU_eVzrO79IEMNU5jLW-5" style="edgeStyle=orthogonalEdgeStyle;rounded=0;orthogonalLoop=1;jettySize=auto;html=1;entryX=0.002;entryY=0.318;entryDx=0;entryDy=0;entryPerimeter=0;" parent="1" source="-gU_eVzrO79IEMNU5jLW-3" target="-gU_eVzrO79IEMNU5jLW-1" edge="1">
          <mxGeometry relative="1" as="geometry" />
        </mxCell>
        <mxCell id="-gU_eVzrO79IEMNU5jLW-7" value="Sube archivo plano" style="edgeLabel;html=1;align=center;verticalAlign=middle;resizable=0;points=[];" parent="-gU_eVzrO79IEMNU5jLW-5" vertex="1" connectable="0">
          <mxGeometry x="0.2062" y="3" relative="1" as="geometry">
            <mxPoint as="offset" />
          </mxGeometry>
        </mxCell>
        <mxCell id="-gU_eVzrO79IEMNU5jLW-3" value="Usuario GEMA" style="sketch=0;pointerEvents=1;shadow=0;dashed=0;html=1;strokeColor=none;labelPosition=center;verticalLabelPosition=bottom;verticalAlign=top;align=center;fillColor=#505050;shape=mxgraph.mscae.intune.user_group" parent="1" vertex="1">
          <mxGeometry x="787.5" y="910" width="50" height="37" as="geometry" />
        </mxCell>
        <mxCell id="-gU_eVzrO79IEMNU5jLW-8" value="DataStage" style="shape=cube;whiteSpace=wrap;html=1;boundedLbl=1;backgroundOutline=1;darkOpacity=0.05;darkOpacity2=0.1;size=10;fillColor=#d5e8d4;strokeColor=#82b366;" parent="1" vertex="1">
          <mxGeometry x="1135" y="897" width="90" height="50" as="geometry" />
        </mxCell>
        <mxCell id="-gU_eVzrO79IEMNU5jLW-9" value="Informix&lt;br&gt;bd RFisca&lt;br&gt;&lt;br&gt;online sxx_bancos" style="shape=cylinder3;whiteSpace=wrap;html=1;boundedLbl=1;backgroundOutline=1;size=15;" parent="1" vertex="1">
          <mxGeometry x="1250" y="975" width="90" height="125" as="geometry" />
        </mxCell>
        <mxCell id="-gU_eVzrO79IEMNU5jLW-10" value="Informix&lt;br&gt;Metodos&lt;br&gt;&lt;br&gt;online s0i_dwh" style="shape=cylinder3;whiteSpace=wrap;html=1;boundedLbl=1;backgroundOutline=1;size=15;" parent="1" vertex="1">
          <mxGeometry x="1040" y="975" width="90" height="125" as="geometry" />
        </mxCell>
        <mxCell id="-gU_eVzrO79IEMNU5jLW-11" value="Informix&lt;br&gt;bd rsirat&lt;br&gt;&lt;br&gt;online sxx_prico" style="shape=cylinder3;whiteSpace=wrap;html=1;boundedLbl=1;backgroundOutline=1;size=15;" parent="1" vertex="1">
          <mxGeometry x="1440" y="975" width="90" height="125" as="geometry" />
        </mxCell>
        <mxCell id="-gU_eVzrO79IEMNU5jLW-12" value="Informix&lt;br&gt;bd recauda&lt;br&gt;&lt;br&gt;online sxx_bancos" style="shape=cylinder3;whiteSpace=wrap;html=1;boundedLbl=1;backgroundOutline=1;size=15;" parent="1" vertex="1">
          <mxGeometry x="1440" y="840" width="90" height="125" as="geometry" />
        </mxCell>
        <mxCell id="OXPec7SwYFfNkWb8Lh6e-1" value="" style="rounded=0;whiteSpace=wrap;html=1;dashed=1;fillColor=none;strokeWidth=2;" parent="1" vertex="1">
          <mxGeometry x="1010" y="1155" width="540" height="311" as="geometry" />
        </mxCell>
        <mxCell id="OXPec7SwYFfNkWb8Lh6e-2" value="&lt;b&gt;GIE&lt;/b&gt;" style="text;strokeColor=none;align=center;fillColor=none;html=1;verticalAlign=middle;whiteSpace=wrap;rounded=0;" parent="1" vertex="1">
          <mxGeometry x="1010" y="1131" width="60" height="30" as="geometry" />
        </mxCell>
        <mxCell id="OXPec7SwYFfNkWb8Lh6e-22" style="edgeStyle=orthogonalEdgeStyle;rounded=0;orthogonalLoop=1;jettySize=auto;html=1;" parent="1" source="OXPec7SwYFfNkWb8Lh6e-8" target="OXPec7SwYFfNkWb8Lh6e-9" edge="1">
          <mxGeometry relative="1" as="geometry" />
        </mxCell>
        <mxCell id="OXPec7SwYFfNkWb8Lh6e-8" value="Control-M" style="shape=cube;whiteSpace=wrap;html=1;boundedLbl=1;backgroundOutline=1;darkOpacity=0.05;darkOpacity2=0.1;size=10;fillColor=#d5e8d4;strokeColor=#82b366;" parent="1" vertex="1">
          <mxGeometry x="1030" y="1200" width="90" height="50" as="geometry" />
        </mxCell>
        <mxCell id="OXPec7SwYFfNkWb8Lh6e-16" style="edgeStyle=orthogonalEdgeStyle;rounded=0;orthogonalLoop=1;jettySize=auto;html=1;" parent="1" source="OXPec7SwYFfNkWb8Lh6e-9" target="OXPec7SwYFfNkWb8Lh6e-10" edge="1">
          <mxGeometry relative="1" as="geometry" />
        </mxCell>
        <mxCell id="OXPec7SwYFfNkWb8Lh6e-24" style="edgeStyle=orthogonalEdgeStyle;rounded=0;orthogonalLoop=1;jettySize=auto;html=1;entryX=0.579;entryY=1.005;entryDx=0;entryDy=0;entryPerimeter=0;" parent="1" source="OXPec7SwYFfNkWb8Lh6e-9" target="geifvfFEWeNei55oTGaf-37" edge="1">
          <mxGeometry relative="1" as="geometry">
            <Array as="points">
              <mxPoint x="1225" y="1180" />
              <mxPoint x="577" y="1180" />
            </Array>
          </mxGeometry>
        </mxCell>
        <mxCell id="OXPec7SwYFfNkWb8Lh6e-25" value="Obtener fiscalizables" style="edgeLabel;html=1;align=center;verticalAlign=middle;resizable=0;points=[];" parent="OXPec7SwYFfNkWb8Lh6e-24" vertex="1" connectable="0">
          <mxGeometry x="-0.3387" y="2" relative="1" as="geometry">
            <mxPoint as="offset" />
          </mxGeometry>
        </mxCell>
        <mxCell id="OXPec7SwYFfNkWb8Lh6e-9" value="Identifica" style="shape=cube;whiteSpace=wrap;html=1;boundedLbl=1;backgroundOutline=1;darkOpacity=0.05;darkOpacity2=0.1;size=10;fillColor=#fff2cc;strokeColor=#d6b656;" parent="1" vertex="1">
          <mxGeometry x="1180" y="1230" width="90" height="50" as="geometry" />
        </mxCell>
        <mxCell id="OXPec7SwYFfNkWb8Lh6e-17" style="edgeStyle=orthogonalEdgeStyle;rounded=0;orthogonalLoop=1;jettySize=auto;html=1;" parent="1" source="OXPec7SwYFfNkWb8Lh6e-10" target="OXPec7SwYFfNkWb8Lh6e-11" edge="1">
          <mxGeometry relative="1" as="geometry" />
        </mxCell>
        <mxCell id="OXPec7SwYFfNkWb8Lh6e-10" value="Genera carga" style="shape=cube;whiteSpace=wrap;html=1;boundedLbl=1;backgroundOutline=1;darkOpacity=0.05;darkOpacity2=0.1;size=10;fillColor=#fff2cc;strokeColor=#d6b656;" parent="1" vertex="1">
          <mxGeometry x="1290" y="1230" width="90" height="50" as="geometry" />
        </mxCell>
        <mxCell id="OXPec7SwYFfNkWb8Lh6e-19" style="edgeStyle=orthogonalEdgeStyle;rounded=0;orthogonalLoop=1;jettySize=auto;html=1;entryX=0;entryY=0;entryDx=0;entryDy=20;entryPerimeter=0;" parent="1" source="OXPec7SwYFfNkWb8Lh6e-11" target="OXPec7SwYFfNkWb8Lh6e-14" edge="1">
          <mxGeometry relative="1" as="geometry">
            <Array as="points">
              <mxPoint x="1445" y="1310" />
              <mxPoint x="1160" y="1310" />
              <mxPoint x="1160" y="1340" />
            </Array>
          </mxGeometry>
        </mxCell>
        <mxCell id="OXPec7SwYFfNkWb8Lh6e-11" value="Actualizar en SISCOR #carga" style="shape=cube;whiteSpace=wrap;html=1;boundedLbl=1;backgroundOutline=1;darkOpacity=0.05;darkOpacity2=0.1;size=10;fillColor=#fff2cc;strokeColor=#d6b656;" parent="1" vertex="1">
          <mxGeometry x="1400" y="1230" width="90" height="50" as="geometry" />
        </mxCell>
        <mxCell id="OXPec7SwYFfNkWb8Lh6e-12" value="Correo de Ã©xito" style="shape=cube;whiteSpace=wrap;html=1;boundedLbl=1;backgroundOutline=1;darkOpacity=0.05;darkOpacity2=0.1;size=10;fillColor=#d5e8d4;strokeColor=#82b366;" parent="1" vertex="1">
          <mxGeometry x="1610" y="1230" width="90" height="50" as="geometry" />
        </mxCell>
        <mxCell id="OXPec7SwYFfNkWb8Lh6e-13" value="&lt;b&gt;&lt;span style=&quot;font-size:10.0pt;font-family:&amp;quot;Arial&amp;quot;,sans-serif;mso-fareast-font-family:&lt;br/&gt;&amp;quot;Times New Roman&amp;quot;;mso-ansi-language:ES;mso-fareast-language:ES;mso-bidi-language:&lt;br/&gt;AR-SA&quot; lang=&quot;ES&quot;&gt;jefe de la DivisiÃ³n de SelecciÃ³n &lt;br&gt;y ProgramaciÃ³n de la INGP&amp;nbsp;&lt;/span&gt;&lt;/b&gt;" style="sketch=0;pointerEvents=1;shadow=0;dashed=0;html=1;strokeColor=none;labelPosition=center;verticalLabelPosition=bottom;verticalAlign=top;align=center;fillColor=#505050;shape=mxgraph.mscae.intune.user_group" parent="1" vertex="1">
          <mxGeometry x="1810" y="1236.5" width="50" height="37" as="geometry" />
        </mxCell>
        <mxCell id="OXPec7SwYFfNkWb8Lh6e-20" style="edgeStyle=orthogonalEdgeStyle;rounded=0;orthogonalLoop=1;jettySize=auto;html=1;" parent="1" source="OXPec7SwYFfNkWb8Lh6e-14" target="OXPec7SwYFfNkWb8Lh6e-15" edge="1">
          <mxGeometry relative="1" as="geometry" />
        </mxCell>
        <mxCell id="OXPec7SwYFfNkWb8Lh6e-21" style="edgeStyle=orthogonalEdgeStyle;rounded=0;orthogonalLoop=1;jettySize=auto;html=1;" parent="1" source="OXPec7SwYFfNkWb8Lh6e-14" target="OXPec7SwYFfNkWb8Lh6e-12" edge="1">
          <mxGeometry relative="1" as="geometry">
            <Array as="points">
              <mxPoint x="1225" y="1400" />
              <mxPoint x="1655" y="1400" />
            </Array>
          </mxGeometry>
        </mxCell>
        <mxCell id="OXPec7SwYFfNkWb8Lh6e-14" value="Informar" style="shape=cube;whiteSpace=wrap;html=1;boundedLbl=1;backgroundOutline=1;darkOpacity=0.05;darkOpacity2=0.1;size=10;fillColor=#fff2cc;strokeColor=#d6b656;" parent="1" vertex="1">
          <mxGeometry x="1180" y="1320" width="90" height="50" as="geometry" />
        </mxCell>
        <mxCell id="OXPec7SwYFfNkWb8Lh6e-15" value="Actualizar en SISCOR estado" style="shape=cube;whiteSpace=wrap;html=1;boundedLbl=1;backgroundOutline=1;darkOpacity=0.05;darkOpacity2=0.1;size=10;fillColor=#fff2cc;strokeColor=#d6b656;" parent="1" vertex="1">
          <mxGeometry x="1290" y="1320" width="90" height="50" as="geometry" />
        </mxCell>
        <mxCell id="OXPec7SwYFfNkWb8Lh6e-23" value="&lt;span&gt;Diario 2 AM&lt;/span&gt;" style="text;strokeColor=none;align=center;fillColor=none;html=1;verticalAlign=middle;whiteSpace=wrap;rounded=0;fontStyle=0" parent="1" vertex="1">
          <mxGeometry x="1030" y="1250" width="90" height="30" as="geometry" />
        </mxCell>
        <mxCell id="pUn6-nSd4ApJXPjYoaCP-1" value="Usuario GEMA" style="sketch=0;pointerEvents=1;shadow=0;dashed=0;html=1;strokeColor=none;labelPosition=center;verticalLabelPosition=bottom;verticalAlign=top;align=center;fillColor=#505050;shape=mxgraph.mscae.intune.user_group" vertex="1" parent="1">
          <mxGeometry x="1085" y="250" width="50" height="37" as="geometry" />
        </mxCell>
        <mxCell id="pUn6-nSd4ApJXPjYoaCP-2" style="edgeStyle=orthogonalEdgeStyle;rounded=0;orthogonalLoop=1;jettySize=auto;html=1;entryX=0.556;entryY=0.16;entryDx=0;entryDy=0;entryPerimeter=0;" edge="1" parent="1" source="pUn6-nSd4ApJXPjYoaCP-1" target="e_DzQCpD5upc4EDRTpxR-20">
          <mxGeometry relative="1" as="geometry" />
        </mxCell>
        <mxCell id="pUn6-nSd4ApJXPjYoaCP-3" value="" style="shape=flexArrow;endArrow=classic;html=1;rounded=0;fontSize=12;startSize=8;endSize=8;curved=1;strokeColor=#FF3333;" edge="1" parent="1">
          <mxGeometry width="50" height="50" relative="1" as="geometry">
            <mxPoint x="1149" y="527.5" as="sourcePoint" />
            <mxPoint x="1149" y="419.25" as="targetPoint" />
            <Array as="points" />
          </mxGeometry>
        </mxCell>
        <mxCell id="pUn6-nSd4ApJXPjYoaCP-4" value="" style="shape=flexArrow;endArrow=classic;html=1;rounded=0;fontSize=12;startSize=8;endSize=8;curved=1;strokeColor=#FF3333;" edge="1" parent="1">
          <mxGeometry width="50" height="50" relative="1" as="geometry">
            <mxPoint x="1170" y="362" as="sourcePoint" />
            <mxPoint x="1280" y="362.38" as="targetPoint" />
            <Array as="points" />
          </mxGeometry>
        </mxCell>
      </root>
    </mxGraphModel>
  </diagram>
</mxfile>
